<svg xmlns="http://www.w3.org/2000/svg" width="50" height="50" viewBox="0 0 444.819 444.819"><path d="M278.657 10.851L92.79 196.432c-7.044 7.419-10.566 16.08-10.566 25.977 0 10.088 3.521 18.652 10.566 25.697l185.867 185.865c7.23 7.233 15.892 10.848 25.98 10.848 10.28 0 18.843-3.619 25.693-10.848l21.413-21.411c7.23-6.854 10.852-15.42 10.852-25.697 0-10.278-3.621-18.842-10.852-25.697L213.271 222.409 351.74 83.651c7.228-6.848 10.852-15.413 10.852-25.7 0-10.082-3.624-18.747-10.852-25.975l-21.412-21.409C323.285 3.524 314.72 0 304.635 0c-10.09 0-18.751 3.614-25.978 10.851z" fill="#fff"/></svg>