<svg xmlns="http://www.w3.org/2000/svg" width="50" height="50" viewBox="0 0 444.819 444.819"><path d="M10.851 166.162l185.581 185.867c7.419 7.044 16.08 10.566 25.977 10.566 10.088 0 18.652-3.521 25.697-10.566l185.865-185.867c7.233-7.23 10.848-15.892 10.848-25.98 0-10.28-3.619-18.843-10.848-25.693L412.56 93.076c-6.854-7.23-15.42-10.852-25.697-10.852-10.278 0-18.842 3.621-25.697 10.852L222.409 231.548 83.651 93.079c-6.848-7.228-15.413-10.852-25.7-10.852-10.082 0-18.747 3.624-25.975 10.852l-21.409 21.412C3.524 121.534 0 130.099 0 140.184c0 10.09 3.614 18.751 10.851 25.978z" fill="#fff"/></svg>