<?xml version="1.0" encoding="iso-8859-1"?>
<!-- Generator: Adobe Illustrator 21.0.2, SVG Export Plug-In . SVG Version: 6.00 Build 0)  -->
<svg version="1.1" id="Layer_1" xmlns="http://www.w3.org/2000/svg" xmlns:xlink="http://www.w3.org/1999/xlink" x="0px" y="0px"
	 viewBox="0 0 512 343.671" style="enable-background:new 0 0 512 343.671;" xml:space="preserve">
<g>
	<defs>
		<rect id="SVGID_1_" width="512" height="343.671"/>
	</defs>
	<clipPath id="SVGID_2_">
		<use xlink:href="#SVGID_1_"  style="overflow:visible;"/>
	</clipPath>
	<path style="clip-path:url(#SVGID_2_);fill-rule:evenodd;clip-rule:evenodd;fill:#0062AF;" d="M92.301,257.078l148.529-66.699
		c9.179-4.052,14.165-6.154,25.408-0.123l65.346,39.281l69.28-31.792c5.668-2.41,9.347-1.788,18.335,4.021l89.949,54.745
		l-0.002-11.473l-89.944-55.115c-12.08-7.28-14.258-5.6-18.335-4.021l-69.28,32.167l-65.296-39.308
		c-9.206-4.8-16.935-3.702-25.804,0.337L92.271,245.653L92.301,257.078z"/>
	<path style="clip-path:url(#SVGID_2_);fill-rule:evenodd;clip-rule:evenodd;fill:#0091D4;" d="M92.307,245.643l148.526-66.701
		c8.169-3.714,16.008-5.092,25.459-0.181l65.296,39.309l69.28-32.167c5.424-2.09,7.554-2.46,18.335,4.022l89.941,55.115
		l-0.002-11.473l-89.936-55.483c-11.281-7.003-14.127-5.865-18.335-4.022l-69.29,32.509l-65.235-39.308
		c-10.775-5.696-15.822-4.354-25.476,0.174L92.269,234.166L92.307,245.643z"/>
	<path style="clip-path:url(#SVGID_2_);fill-rule:evenodd;clip-rule:evenodd;fill:#00A6E3;" d="M92.303,234.156l148.564-66.719
		c9.176-4.052,14.233-6.205,25.476-0.174l65.246,39.326l69.282-32.527c3.503-1.128,6.099-3.576,18.335,4.021l89.934,55.483
		l-0.002-11.473l-89.929-55.85c-11.767-6.93-14.127-5.865-18.335-4.021l-69.29,32.882l-65.185-39.336
		c-10.329-5.696-15.804-4.578-25.569,0.209L92.275,222.668L92.303,234.156z"/>
	<path style="clip-path:url(#SVGID_2_);fill-rule:evenodd;clip-rule:evenodd;fill:#98D2F0;" d="M92.31,222.659l148.524-66.699
		c9.138-4.162,14.318-6.225,25.564-0.194l65.185,39.339l69.29-32.885c3.752-1.642,7.179-2.984,18.335,4.021l89.928,55.85
		l-0.002-11.473l-89.924-56.218c-6.847-3.546-11.327-7.063-18.335-4.021l-69.292,33.25l-65.132-39.359
		c-10.327-5.696-15.847-4.568-25.612,0.219L92.268,211.199L92.31,222.659z"/>
	<path style="clip-path:url(#SVGID_2_);fill-rule:evenodd;clip-rule:evenodd;fill:#B0DCF2;" d="M92.302,211.19l148.79-66.92
		c9.179-4.049,14.114-6.031,25.358,0l65.132,39.361l69.292-33.25c6.278-2.171,9.367-1,18.335,4.019l89.923,56.22l-0.002-11.475
		l-89.916-56.586c-10.385-6.517-14.127-5.862-18.335-4.021l-69.295,33.602l-65.082-39.366c-10.327-5.696-16.383-4.427-26.149,0.36
		L92.27,199.725L92.302,211.19z"/>
	<path style="clip-path:url(#SVGID_2_);fill-rule:evenodd;clip-rule:evenodd;fill:#2E3191;" d="M92.303,268.551l148.526-66.693
		c9.176-4.052,14.112-6.137,25.358-0.106l65.399,39.271l69.275-31.437c5.9-2.468,8.171-2.216,18.335,4.021l89.951,54.38v-11.475
		l-89.949-54.747c-8.892-5.691-11.954-6.497-18.335-4.019l-69.28,31.792l-65.344-39.281c-10.33-5.696-15.643-4.666-25.411,0.123
		L92.265,257.086L92.303,268.551z"/>
	<path style="clip-path:url(#SVGID_2_);fill:#58595B;" d="M280.092,276.487c-0.259-1.219-0.811-2.065-1.642-2.533
		c-0.833-0.466-1.74-0.703-2.73-0.703c-0.959,0-1.826,0.237-2.599,0.708c-0.773,0.471-1.38,1.168-1.831,2.103
		c-0.446,0.929-0.667,2.055-0.667,3.379c0,1.982,0.403,3.563,1.214,4.732c0.811,1.173,2.133,1.76,3.956,1.76
		c0.554,0,1.126-0.116,1.715-0.353c0.589-0.232,1.141-0.665,1.644-1.304c0.506-0.637,0.866-1.513,1.088-2.621h2.042
		c-0.259,1.76-0.826,3.097-1.705,4.009c-0.881,0.917-1.77,1.498-2.674,1.755c-0.904,0.254-1.72,0.38-2.44,0.38
		c-0.922,0-1.798-0.154-2.632-0.468c-0.826-0.312-1.574-0.806-2.234-1.471c-0.667-0.67-1.189-1.534-1.571-2.599
		c-0.385-1.063-0.577-2.314-0.577-3.757c0-1.199,0.166-2.299,0.501-3.296c0.327-0.997,0.813-1.856,1.443-2.571
		c0.63-0.72,1.398-1.274,2.297-1.665c0.901-0.393,1.911-0.587,3.034-0.587c1.269,0,2.372,0.234,3.306,0.705
		c0.934,0.473,1.657,1.098,2.171,1.876c0.514,0.778,0.826,1.617,0.932,2.521H280.092z"/>
	<polygon style="clip-path:url(#SVGID_2_);fill:#58595B;" points="296.329,287.386 284.829,287.386 284.829,271.797 
		296.181,271.797 296.181,273.665 286.931,273.665 286.931,278.437 295.46,278.437 295.46,280.305 286.931,280.305 286.931,285.518 
		296.329,285.518 	"/>
	<path style="clip-path:url(#SVGID_2_);fill:#58595B;" d="M301.413,285.584h4.49c1.075,0,1.896-0.252,2.458-0.76
		c0.561-0.504,0.843-1.201,0.843-2.088c0-1.748-1.216-2.624-3.649-2.624h-4.142V285.584z M301.413,278.395h3.795
		c1.068,0,1.878-0.191,2.433-0.572c0.554-0.385,0.828-1.032,0.828-1.944c0-0.753-0.254-1.322-0.763-1.705
		c-0.511-0.383-1.332-0.574-2.473-0.574h-3.82V278.395z M299.311,271.797h6.862c0.932,0,1.732,0.176,2.395,0.529
		c0.662,0.35,1.161,0.821,1.498,1.415c0.335,0.592,0.506,1.254,0.506,1.982c0,1.521-0.695,2.606-2.08,3.261
		c0.813,0.332,1.486,0.755,2.02,1.277c0.531,0.519,0.796,1.362,0.796,2.523c0,0.851-0.204,1.622-0.612,2.319
		c-0.411,0.697-1.015,1.254-1.821,1.664c-0.803,0.413-1.758,0.619-2.858,0.619h-6.706V271.797z"/>
	<polygon style="clip-path:url(#SVGID_2_);fill:#58595B;" points="325.292,287.386 313.792,287.386 313.792,271.797 
		325.144,271.797 325.144,273.665 315.894,273.665 315.894,278.437 324.423,278.437 324.423,280.305 315.894,280.305 
		315.894,285.518 325.292,285.518 	"/>
	<path style="clip-path:url(#SVGID_2_);fill:#58595B;" d="M330.376,279.028h4.424c2.115,0,3.173-0.934,3.173-2.798
		c0-1.74-1.03-2.609-3.08-2.609h-4.517V279.028z M330.376,287.408h-2.103v-15.59h7.245c0.937,0,1.755,0.189,2.458,0.562
		c0.698,0.375,1.236,0.896,1.609,1.566c0.373,0.67,0.559,1.423,0.559,2.261c0,1.241-0.38,2.324-1.146,3.243
		c-0.758,0.919-1.921,1.377-3.48,1.377h-5.142V287.408z"/>
	<path style="clip-path:url(#SVGID_2_);fill:#58595B;" d="M349.548,273.251c-1.105,0-2.07,0.272-2.893,0.811
		c-0.821,0.544-1.45,1.292-1.889,2.251c-0.438,0.959-0.655,2.052-0.655,3.279s0.222,2.319,0.66,3.281
		c0.438,0.959,1.07,1.712,1.891,2.251c0.826,0.539,1.785,0.808,2.886,0.808c1.095,0,2.055-0.269,2.881-0.808
		c0.821-0.539,1.453-1.292,1.891-2.251c0.438-0.962,0.66-2.055,0.66-3.281s-0.219-2.319-0.655-3.279
		c-0.438-0.959-1.068-1.707-1.891-2.251C351.613,273.523,350.646,273.251,349.548,273.251 M349.543,287.799
		c-1.378,0-2.559-0.257-3.543-0.768c-0.98-0.509-1.765-1.176-2.352-1.997c-0.582-0.821-1.002-1.7-1.259-2.644
		c-0.252-0.942-0.38-1.871-0.38-2.795c0-0.924,0.128-1.858,0.38-2.8c0.257-0.944,0.677-1.823,1.259-2.644
		c0.584-0.821,1.37-1.488,2.352-1.999c0.987-0.509,2.168-0.766,3.543-0.766c1.38,0,2.558,0.254,3.543,0.76
		c0.985,0.506,1.77,1.171,2.357,1.997c0.582,0.823,1,1.707,1.259,2.652c0.252,0.942,0.378,1.876,0.378,2.8
		c0,0.924-0.126,1.853-0.378,2.795c-0.259,0.944-0.677,1.823-1.264,2.649c-0.587,0.821-1.372,1.486-2.352,1.997
		C352.104,287.544,350.926,287.799,349.543,287.799"/>
	<rect x="358.946" y="280.397" style="clip-path:url(#SVGID_2_);fill:#58595B;" width="5.323" height="1.957"/>
	<polygon style="clip-path:url(#SVGID_2_);fill:#58595B;" points="368.98,287.386 366.877,287.386 366.877,271.797 368.98,271.797 
		368.98,279.351 376.531,271.797 379.442,271.797 372.948,278.094 379.619,287.386 376.884,287.386 371.43,279.568 368.98,281.915 	
		"/>
	<path style="clip-path:url(#SVGID_2_);fill:#58595B;" d="M388.061,280.98l-2.302-6.865h-0.04l-2.496,6.865H388.061z
		 M382.571,282.849l-1.629,4.538h-2.171l5.86-15.59h2.39l5.643,15.59h-2.299l-1.544-4.538H382.571z"/>
	<path style="clip-path:url(#SVGID_2_);fill:#58595B;" d="M396.731,285.584h4.49c1.075,0,1.896-0.252,2.458-0.76
		c0.561-0.504,0.844-1.201,0.844-2.088c0-1.748-1.216-2.624-3.649-2.624h-4.142V285.584z M396.731,278.395h3.795
		c1.068,0,1.878-0.191,2.433-0.572c0.554-0.385,0.828-1.032,0.828-1.944c0-0.753-0.252-1.322-0.763-1.705
		c-0.511-0.383-1.332-0.574-2.473-0.574h-3.82V278.395z M394.628,271.797h6.862c0.932,0,1.732,0.176,2.395,0.529
		c0.662,0.35,1.161,0.821,1.498,1.415c0.337,0.592,0.506,1.254,0.506,1.982c0,1.521-0.695,2.606-2.08,3.261
		c0.813,0.332,1.486,0.755,2.02,1.277c0.531,0.519,0.796,1.362,0.796,2.523c0,0.851-0.204,1.622-0.612,2.319
		c-0.411,0.697-1.015,1.254-1.821,1.664c-0.803,0.413-1.758,0.619-2.858,0.619h-6.706V271.797z"/>
	<polygon style="clip-path:url(#SVGID_2_);fill:#58595B;" points="411.212,287.386 409.109,287.386 409.109,271.797 
		411.212,271.797 411.212,279.351 418.764,271.797 421.673,271.797 415.181,278.094 421.851,287.386 419.117,287.386 
		413.662,279.568 411.212,281.915 	"/>
	<path style="clip-path:url(#SVGID_2_);fill:#58595B;" d="M430.293,280.98l-2.302-6.865h-0.04l-2.496,6.865H430.293z
		 M424.804,282.849l-1.629,4.538h-2.171l5.86-15.59h2.39l5.643,15.59h-2.299l-1.544-4.538H424.804z"/>
	<path style="clip-path:url(#SVGID_2_);fill:#58595B;" d="M441.826,278.376c0.992,0,1.881-0.209,2.667-0.63
		c0.786-0.415,1.176-1.01,1.176-1.778c0-1.053-0.373-1.768-1.12-2.161c-0.745-0.385-1.604-0.582-2.571-0.582
		c-1.06,0-1.974,0.249-2.752,0.753c-0.776,0.504-1.191,1.309-1.241,2.42h-1.979c0-0.705,0.181-1.435,0.541-2.193
		c0.368-0.758,1.01-1.41,1.941-1.959c0.932-0.546,2.173-0.823,3.729-0.823c1.053,0,2.002,0.186,2.846,0.551
		c0.839,0.368,1.498,0.886,1.964,1.556c0.466,0.665,0.703,1.428,0.703,2.284c0,0.987-0.305,1.74-0.909,2.261
		c-0.604,0.521-1.257,0.854-1.952,0.995c0.521,0.083,1.048,0.285,1.576,0.602c0.526,0.317,0.972,0.743,1.335,1.284
		c0.358,0.541,0.539,1.163,0.539,1.868c0,1.105-0.297,2.032-0.894,2.785c-0.594,0.753-1.36,1.304-2.302,1.659
		c-0.937,0.353-1.924,0.529-2.971,0.529c-1.317,0-2.41-0.199-3.279-0.597c-0.864-0.398-1.523-0.891-1.974-1.481
		c-0.448-0.589-0.76-1.179-0.924-1.773c-0.166-0.589-0.249-1.126-0.249-1.597h1.977c0,1.292,0.425,2.221,1.274,2.79
		c0.849,0.569,1.901,0.854,3.163,0.854c0.599,0,1.214-0.108,1.843-0.325c0.63-0.217,1.156-0.556,1.579-1.025
		c0.423-0.463,0.632-1.043,0.632-1.733c0-1.037-0.436-1.785-1.314-2.234c-0.881-0.451-1.949-0.675-3.201-0.675
		c-0.627,0-1.141,0.013-1.546,0.045v-1.717C440.509,278.361,441.073,278.376,441.826,278.376"/>
	<path style="clip-path:url(#SVGID_2_);fill:#58595B;" d="M461.848,276.487c-0.262-1.219-0.811-2.065-1.642-2.533
		c-0.833-0.466-1.743-0.703-2.73-0.703c-0.959,0-1.828,0.237-2.599,0.708c-0.773,0.471-1.383,1.168-1.831,2.103
		c-0.446,0.929-0.667,2.055-0.667,3.379c0,1.982,0.403,3.563,1.214,4.732c0.811,1.173,2.133,1.76,3.956,1.76
		c0.554,0,1.126-0.116,1.715-0.353c0.589-0.232,1.141-0.665,1.642-1.304c0.509-0.637,0.869-1.513,1.09-2.621h2.042
		c-0.259,1.76-0.826,3.097-1.705,4.009c-0.881,0.917-1.77,1.498-2.674,1.755c-0.906,0.254-1.72,0.38-2.44,0.38
		c-0.922,0-1.798-0.154-2.629-0.468c-0.831-0.312-1.576-0.806-2.239-1.471c-0.665-0.67-1.186-1.534-1.569-2.599
		c-0.385-1.063-0.577-2.314-0.577-3.757c0-1.199,0.166-2.299,0.499-3.296c0.33-0.997,0.816-1.856,1.445-2.571
		c0.63-0.72,1.395-1.274,2.297-1.665c0.901-0.393,1.911-0.587,3.034-0.587c1.269,0,2.372,0.234,3.306,0.705
		c0.934,0.473,1.657,1.098,2.171,1.876c0.514,0.778,0.826,1.617,0.932,2.521H461.848z"/>
	<polygon style="clip-path:url(#SVGID_2_);fill:#58595B;" points="468.686,287.386 466.584,287.386 466.584,271.797 
		468.686,271.797 468.686,279.351 476.238,271.797 479.149,271.797 472.657,278.094 479.326,287.386 476.591,287.386 
		471.136,279.568 468.686,281.915 	"/>
	<polygon style="clip-path:url(#SVGID_2_);fill:#58595B;" points="483.096,284.39 483.144,284.39 490.94,271.797 493.433,271.797 
		493.433,287.387 491.398,287.387 491.398,274.794 491.353,274.794 483.426,287.387 481.059,287.387 481.059,271.797 
		483.096,271.797 	"/>
	<path style="clip-path:url(#SVGID_2_);fill:#58595B;" d="M506.316,268.999c-0.224,1.967-1.38,2.949-3.46,2.949
		c-1.939,0-3.017-0.982-3.238-2.949h1.068c0.164,0.496,0.338,0.841,0.521,1.04c0.395,0.448,1.002,0.672,1.823,0.672
		c0.76,0,1.289-0.159,1.581-0.478c0.295-0.317,0.514-0.728,0.66-1.234H506.316z M498.772,284.39h0.048l7.796-12.593h2.493v15.59
		h-2.037v-12.593h-0.043l-7.927,12.593h-2.367v-15.59h2.037V284.39z"/>
	<path style="clip-path:url(#SVGID_2_);fill:#58595B;" d="M275.504,310.361v-9.075c-0.992,0-1.868,0.159-2.626,0.473
		c-0.76,0.315-1.355,0.813-1.785,1.496c-0.431,0.68-0.645,1.536-0.645,2.571c0,1.032,0.214,1.886,0.645,2.566
		c0.43,0.68,1.025,1.178,1.785,1.493C273.636,310.2,274.512,310.361,275.504,310.361 M277.584,301.286v9.075
		c1,0,1.878-0.161,2.639-0.476c0.763-0.315,1.357-0.813,1.783-1.496c0.43-0.682,0.645-1.536,0.645-2.564
		c0-1.03-0.214-1.889-0.645-2.568c-0.426-0.685-1.02-1.184-1.783-1.498C279.463,301.444,278.584,301.286,277.584,301.286
		 M277.584,299.656c1.178,0,2.228,0.166,3.14,0.499c0.914,0.33,1.672,0.786,2.281,1.362c0.604,0.574,1.06,1.234,1.365,1.974
		c0.3,0.743,0.451,1.521,0.451,2.334c0,0.811-0.151,1.589-0.451,2.327c-0.302,0.743-0.758,1.405-1.37,1.987
		c-0.609,0.584-1.37,1.043-2.276,1.372c-0.904,0.332-1.954,0.499-3.14,0.499v1.607h-2.08v-1.607c-1.183,0-2.229-0.166-3.138-0.499
		c-0.909-0.33-1.665-0.788-2.271-1.37c-0.609-0.582-1.06-1.244-1.365-1.982c-0.3-0.743-0.453-1.521-0.453-2.334
		c0-0.818,0.154-1.596,0.461-2.342c0.302-0.74,0.76-1.403,1.362-1.982c0.604-0.574,1.362-1.032,2.269-1.367
		c0.909-0.335,1.954-0.501,3.135-0.501v-1.607h2.08V299.656z"/>
	<polygon style="clip-path:url(#SVGID_2_);fill:#58595B;" points="298.74,313.617 287.239,313.617 287.239,298.027 298.591,298.027 
		298.591,299.896 289.342,299.896 289.342,304.668 297.871,304.668 297.871,306.536 289.342,306.536 289.342,311.749 
		298.74,311.749 	"/>
	<path style="clip-path:url(#SVGID_2_);fill:#58595B;" d="M303.469,311.749h7.318v-11.853h-6.295v7.643
		C304.491,309.135,304.151,310.537,303.469,311.749 M302.343,313.617v2.909h-1.906v-4.777h1.037c0.37-0.602,0.632-1.234,0.788-1.891
		c0.156-0.66,0.232-1.43,0.232-2.319v-9.511h10.392v13.721h1.201v4.777h-1.906v-2.909H302.343z"/>
	<polygon style="clip-path:url(#SVGID_2_);fill:#58595B;" points="327.703,313.617 316.202,313.617 316.202,298.027 
		327.554,298.027 327.554,299.896 318.305,299.896 318.305,304.668 326.834,304.668 326.834,306.536 318.305,306.536 
		318.305,311.749 327.703,311.749 	"/>
	<path style="clip-path:url(#SVGID_2_);fill:#58595B;" d="M332.786,305.259h4.424c2.115,0,3.17-0.934,3.17-2.798
		c0-1.74-1.027-2.609-3.077-2.609h-4.517V305.259z M332.786,313.639h-2.103v-15.59h7.245c0.937,0,1.755,0.189,2.458,0.562
		c0.698,0.375,1.236,0.896,1.609,1.566c0.373,0.67,0.559,1.423,0.559,2.261c0,1.241-0.38,2.324-1.146,3.243
		c-0.758,0.919-1.921,1.377-3.48,1.377h-5.142V313.639z"/>
	<path style="clip-path:url(#SVGID_2_);fill:#58595B;" d="M350.666,307.211l-2.302-6.865h-0.04l-2.496,6.865H350.666z
		 M345.176,309.08l-1.629,4.538h-2.171l5.86-15.59h2.39l5.643,15.59h-2.299l-1.544-4.538H345.176z"/>
	<path style="clip-path:url(#SVGID_2_);fill:#58595B;" d="M360.027,299.895v9.511c0,1.211-0.196,2.153-0.589,2.818
		c-0.39,0.67-0.891,1.118-1.496,1.35c-0.607,0.232-1.294,0.348-2.065,0.348v-1.889c0.846,0,1.415-0.224,1.71-0.677
		c0.295-0.451,0.443-1.103,0.443-1.954v-11.372h10.423v15.587h-2.105v-13.721H360.027z"/>
	<path style="clip-path:url(#SVGID_2_);fill:#58595B;" d="M373.817,311.816h4.517c2.05,0,3.077-0.871,3.077-2.604
		c0-1.871-1.055-2.803-3.17-2.803h-4.424V311.816z M373.817,304.607h5.142c1.06,0,1.939,0.224,2.634,0.67
		c0.695,0.448,1.201,1.022,1.516,1.732c0.315,0.705,0.476,1.448,0.476,2.226c0,0.836-0.186,1.589-0.559,2.259
		c-0.373,0.665-0.912,1.186-1.609,1.561c-0.703,0.373-1.521,0.562-2.458,0.562h-7.245v-15.59h2.103V304.607z"/>
	<polygon style="clip-path:url(#SVGID_2_);fill:#58595B;" points="396.441,298.028 398.544,298.028 398.544,313.618 
		396.441,313.618 396.441,306.343 388.3,306.343 388.3,313.618 386.197,313.618 386.197,298.028 388.3,298.028 388.3,304.477 
		396.441,304.477 	"/>
	<path style="clip-path:url(#SVGID_2_);fill:#58595B;" d="M403.975,311.816h4.276c2.052,0,3.082-0.871,3.082-2.604
		c0-1.871-1.058-2.803-3.17-2.803h-4.188V311.816z M417.452,313.617h-2.103v-15.59h2.103V313.617z M403.975,304.607h4.903
		c1.06,0,1.941,0.224,2.634,0.67c0.695,0.448,1.201,1.022,1.516,1.732c0.315,0.705,0.476,1.448,0.476,2.226
		c0,0.836-0.186,1.589-0.559,2.259c-0.373,0.665-0.912,1.186-1.609,1.561c-0.703,0.373-1.521,0.562-2.458,0.562h-7.005v-15.59h2.103
		V304.607z"/>
	<path style="clip-path:url(#SVGID_2_);fill:#58595B;" d="M430.34,295.23c-0.224,1.967-1.377,2.949-3.46,2.949
		c-1.939,0-3.017-0.982-3.238-2.949h1.068c0.164,0.496,0.338,0.841,0.521,1.04c0.395,0.448,1.002,0.672,1.823,0.672
		c0.76,0,1.289-0.159,1.581-0.478c0.295-0.317,0.514-0.728,0.66-1.234H430.34z M422.795,310.621h0.048l7.796-12.593h2.493v15.59
		h-2.035v-12.593h-0.045l-7.927,12.593h-2.367v-15.59h2.037V310.621z"/>
	<path style="clip-path:url(#SVGID_2_);fill:none;stroke:#58595B;stroke-width:0.526;stroke-miterlimit:22.926;" d="M430.34,295.232
		c-0.224,1.964-1.38,2.949-3.46,2.949c-1.939,0-3.017-0.985-3.238-2.949h1.068c0.161,0.494,0.335,0.839,0.521,1.038
		c0.393,0.448,1.002,0.672,1.823,0.672c0.76,0,1.289-0.159,1.581-0.476c0.292-0.32,0.514-0.728,0.66-1.234H430.34z M422.796,310.621
		h0.045l7.799-12.593h2.493v15.59h-2.037v-12.593h-0.043l-7.93,12.593h-2.365v-15.59h2.037V310.621z M403.975,311.817h4.276
		c2.052,0,3.08-0.871,3.08-2.604c0-1.871-1.055-2.803-3.17-2.803h-4.185V311.817z M417.45,313.617h-2.103v-15.59h2.103V313.617z
		 M403.975,304.607h4.903c1.06,0,1.939,0.224,2.634,0.67c0.695,0.448,1.201,1.022,1.516,1.732c0.315,0.705,0.473,1.448,0.473,2.226
		c0,0.836-0.184,1.589-0.556,2.259c-0.373,0.665-0.912,1.186-1.609,1.561c-0.703,0.373-1.521,0.562-2.458,0.562h-7.005v-15.59h2.103
		V304.607z M396.441,298.027h2.103v15.59h-2.103v-7.272h-8.141v7.272h-2.103v-15.59h2.103v6.449h8.141V298.027z M373.818,311.817
		h4.515c2.052,0,3.08-0.871,3.08-2.604c0-1.871-1.058-2.803-3.17-2.803h-4.424V311.817z M373.818,304.607h5.142
		c1.06,0,1.939,0.224,2.634,0.67c0.695,0.448,1.201,1.022,1.516,1.732c0.315,0.705,0.473,1.448,0.473,2.226
		c0,0.836-0.184,1.589-0.557,2.259c-0.373,0.665-0.912,1.186-1.612,1.561c-0.7,0.373-1.519,0.562-2.455,0.562h-7.245v-15.59h2.103
		V304.607z M360.026,299.896v9.509c0,1.214-0.194,2.153-0.589,2.82c-0.39,0.67-0.889,1.118-1.493,1.35
		c-0.609,0.232-1.297,0.348-2.067,0.348v-1.889c0.849,0,1.415-0.224,1.712-0.677c0.292-0.453,0.441-1.103,0.441-1.954v-11.375
		h10.423v15.59h-2.103v-13.721H360.026z M350.666,307.211l-2.301-6.862h-0.04l-2.495,6.862H350.666z M345.176,309.079l-1.629,4.538
		h-2.171l5.86-15.59h2.39l5.643,15.59h-2.299l-1.544-4.538H345.176z M332.787,305.259h4.424c2.113,0,3.17-0.934,3.17-2.798
		c0-1.743-1.027-2.609-3.08-2.609h-4.515V305.259z M332.787,313.64h-2.103v-15.59h7.245c0.937,0,1.755,0.189,2.458,0.562
		c0.697,0.375,1.236,0.897,1.609,1.566c0.373,0.67,0.557,1.423,0.557,2.261c0,1.241-0.38,2.324-1.143,3.243
		c-0.758,0.919-1.921,1.377-3.48,1.377h-5.142V313.64z M327.703,313.617h-11.5v-15.59h11.352v1.868h-9.249v4.772h8.529v1.868h-8.529
		v5.213h9.398V313.617z M303.468,311.749h7.318v-11.853h-6.293v7.643C304.493,309.135,304.153,310.537,303.468,311.749z
		 M302.342,313.617v2.908h-1.906v-4.777h1.04c0.368-0.602,0.632-1.234,0.788-1.891c0.156-0.657,0.232-1.43,0.232-2.319v-9.511
		h10.392v13.721h1.201v4.777h-1.906v-2.908H302.342z M298.739,313.617h-11.5v-15.59h11.352v1.868h-9.249v4.772h8.529v1.868h-8.529
		v5.213h9.398V313.617z M275.504,310.361v-9.075c-0.992,0-1.868,0.159-2.627,0.473c-0.76,0.315-1.355,0.813-1.785,1.496
		c-0.431,0.68-0.642,1.536-0.642,2.571c0,1.032,0.211,1.886,0.642,2.566c0.431,0.68,1.025,1.178,1.785,1.493
		C273.635,310.2,274.512,310.361,275.504,310.361z M277.584,301.286v9.075c1,0,1.879-0.161,2.639-0.476
		c0.763-0.315,1.357-0.813,1.783-1.496c0.431-0.682,0.645-1.536,0.645-2.564c0-1.03-0.214-1.889-0.645-2.569
		c-0.426-0.685-1.02-1.184-1.783-1.498C279.462,301.444,278.583,301.286,277.584,301.286z M277.584,299.656
		c1.181,0,2.229,0.166,3.143,0.501c0.912,0.327,1.672,0.783,2.279,1.36c0.604,0.574,1.06,1.234,1.365,1.974
		c0.3,0.743,0.451,1.521,0.451,2.334c0,0.811-0.151,1.589-0.451,2.327c-0.302,0.743-0.758,1.405-1.367,1.987
		c-0.612,0.584-1.372,1.043-2.276,1.372c-0.906,0.332-1.954,0.499-3.143,0.499v1.607h-2.08v-1.607c-1.184,0-2.229-0.166-3.138-0.499
		c-0.909-0.33-1.664-0.788-2.271-1.37c-0.609-0.582-1.06-1.244-1.365-1.982c-0.3-0.743-0.453-1.521-0.453-2.334
		c0-0.818,0.154-1.596,0.461-2.342c0.305-0.74,0.76-1.403,1.362-1.982c0.604-0.574,1.362-1.03,2.271-1.367
		c0.906-0.335,1.954-0.501,3.133-0.501v-1.607h2.08V299.656z M506.316,269c-0.224,1.964-1.377,2.949-3.457,2.949
		c-1.941,0-3.019-0.985-3.241-2.949h1.068c0.164,0.496,0.338,0.839,0.521,1.038c0.395,0.448,1.002,0.675,1.826,0.675
		c0.758,0,1.287-0.159,1.579-0.478c0.295-0.317,0.514-0.728,0.66-1.234H506.316z M498.771,284.391h0.048l7.796-12.593h2.495v15.587
		h-2.037v-12.591h-0.045l-7.927,12.591h-2.367v-15.587h2.037V284.391z M483.096,284.391h0.048l7.796-12.593h2.493v15.587h-2.035
		v-12.591h-0.045l-7.927,12.591h-2.367v-15.587h2.037V284.391z M468.687,287.385h-2.103v-15.587h2.103v7.552l7.552-7.552h2.909
		l-6.492,6.295l6.671,9.292h-2.737l-5.452-7.819l-2.45,2.349V287.385z M461.848,276.487c-0.262-1.219-0.811-2.065-1.644-2.533
		c-0.831-0.466-1.74-0.703-2.727-0.703c-0.959,0-1.828,0.237-2.599,0.708c-0.773,0.471-1.383,1.168-1.831,2.103
		c-0.446,0.929-0.67,2.055-0.67,3.379c0,1.982,0.405,3.563,1.216,4.732c0.811,1.173,2.133,1.76,3.956,1.76
		c0.554,0,1.126-0.116,1.715-0.353c0.589-0.232,1.141-0.665,1.642-1.304c0.509-0.637,0.869-1.513,1.09-2.621h2.04
		c-0.257,1.76-0.824,3.097-1.702,4.009c-0.881,0.917-1.77,1.498-2.674,1.755c-0.906,0.254-1.72,0.38-2.44,0.38
		c-0.922,0-1.798-0.154-2.631-0.468c-0.828-0.312-1.574-0.806-2.236-1.471c-0.665-0.67-1.186-1.534-1.569-2.599
		c-0.385-1.063-0.577-2.314-0.577-3.757c0-1.199,0.166-2.299,0.499-3.296c0.33-0.997,0.816-1.856,1.445-2.571
		c0.63-0.72,1.395-1.274,2.297-1.665c0.902-0.393,1.911-0.587,3.034-0.587c1.269,0,2.372,0.234,3.306,0.705
		c0.934,0.473,1.657,1.098,2.171,1.876c0.514,0.778,0.826,1.617,0.929,2.521H461.848z M441.826,278.375
		c0.992,0,1.881-0.209,2.667-0.63c0.786-0.415,1.176-1.01,1.176-1.775c0-1.053-0.373-1.77-1.121-2.161
		c-0.745-0.388-1.604-0.584-2.571-0.584c-1.06,0-1.974,0.249-2.752,0.753c-0.776,0.504-1.191,1.309-1.241,2.422h-1.979
		c0-0.708,0.181-1.438,0.541-2.193c0.368-0.76,1.01-1.413,1.942-1.962c0.934-0.546,2.173-0.821,3.729-0.821
		c1.053,0,2.002,0.184,2.846,0.549c0.839,0.37,1.498,0.886,1.964,1.556c0.466,0.665,0.703,1.43,0.703,2.284
		c0,0.987-0.305,1.74-0.909,2.261c-0.604,0.521-1.256,0.854-1.949,0.995c0.521,0.083,1.045,0.287,1.574,0.602
		c0.526,0.317,0.972,0.745,1.335,1.284c0.358,0.541,0.539,1.163,0.539,1.871c0,1.103-0.297,2.03-0.894,2.783
		c-0.594,0.753-1.36,1.307-2.302,1.659c-0.937,0.353-1.924,0.529-2.971,0.529c-1.317,0-2.41-0.199-3.279-0.597
		c-0.864-0.398-1.523-0.889-1.974-1.481c-0.448-0.589-0.76-1.179-0.924-1.773c-0.166-0.589-0.249-1.126-0.249-1.594h1.977
		c0,1.292,0.426,2.221,1.274,2.79c0.849,0.567,1.904,0.854,3.163,0.854c0.599,0,1.214-0.111,1.846-0.327
		c0.63-0.217,1.153-0.556,1.576-1.022c0.423-0.463,0.632-1.043,0.632-1.735c0-1.037-0.436-1.783-1.315-2.231
		c-0.881-0.453-1.949-0.677-3.201-0.677c-0.627,0-1.138,0.015-1.544,0.048v-1.72C440.509,278.363,441.073,278.375,441.826,278.375z
		 M430.292,280.982l-2.302-6.864h-0.038l-2.498,6.864H430.292z M424.803,282.848l-1.627,4.538h-2.171l5.857-15.587h2.392
		l5.641,15.587h-2.297l-1.546-4.538H424.803z M411.212,287.385h-2.103v-15.587h2.103v7.552l7.552-7.552h2.909l-6.492,6.295
		l6.671,9.292h-2.737l-5.452-7.819l-2.45,2.349V287.385z M396.73,285.585h4.492c1.073,0,1.894-0.254,2.455-0.76
		c0.562-0.504,0.844-1.201,0.844-2.087c0-1.748-1.216-2.624-3.649-2.624h-4.142V285.585z M396.73,278.393h3.795
		c1.068,0,1.878-0.191,2.433-0.572c0.554-0.383,0.828-1.03,0.828-1.942c0-0.753-0.252-1.322-0.763-1.705
		c-0.509-0.383-1.332-0.577-2.473-0.577h-3.82V278.393z M394.628,271.798h6.862c0.932,0,1.732,0.176,2.395,0.529
		c0.662,0.35,1.161,0.821,1.498,1.413c0.338,0.594,0.506,1.257,0.506,1.984c0,1.521-0.695,2.606-2.08,3.261
		c0.813,0.332,1.488,0.755,2.02,1.277c0.531,0.516,0.796,1.36,0.796,2.521c0,0.851-0.204,1.622-0.612,2.322
		c-0.408,0.697-1.012,1.254-1.821,1.664c-0.803,0.413-1.758,0.617-2.858,0.617h-6.706V271.798z M388.06,280.982l-2.302-6.864h-0.04
		l-2.496,6.864H388.06z M382.571,282.848l-1.629,4.538h-2.171l5.86-15.587h2.392l5.641,15.587h-2.297l-1.546-4.538H382.571z
		 M368.98,287.385h-2.103v-15.587h2.103v7.552l7.552-7.552h2.908l-6.492,6.295l6.671,9.292h-2.737l-5.452-7.819l-2.45,2.349V287.385
		z M364.269,282.354h-5.323v-1.957h5.323V282.354z M349.548,273.251c-1.106,0-2.07,0.272-2.891,0.811
		c-0.821,0.544-1.453,1.292-1.889,2.251c-0.438,0.959-0.657,2.052-0.657,3.279s0.222,2.319,0.66,3.281
		c0.438,0.959,1.07,1.712,1.891,2.251c0.826,0.539,1.785,0.808,2.886,0.808c1.095,0,2.055-0.269,2.881-0.808
		c0.821-0.539,1.453-1.292,1.891-2.251c0.438-0.962,0.66-2.055,0.66-3.281s-0.217-2.319-0.655-3.279
		c-0.438-0.959-1.068-1.707-1.891-2.251C351.612,273.523,350.648,273.251,349.548,273.251z M349.543,287.798
		c-1.377,0-2.556-0.257-3.541-0.766c-0.982-0.511-1.768-1.179-2.352-1.999c-0.584-0.821-1.005-1.7-1.262-2.644
		c-0.252-0.942-0.378-1.871-0.378-2.793c0-0.927,0.126-1.861,0.378-2.803c0.257-0.944,0.677-1.823,1.262-2.644
		c0.582-0.821,1.367-1.488,2.352-1.997c0.987-0.511,2.166-0.768,3.541-0.768c1.38,0,2.558,0.254,3.543,0.76
		c0.985,0.506,1.77,1.171,2.357,1.997c0.582,0.826,1.002,1.707,1.259,2.652c0.252,0.942,0.38,1.876,0.38,2.803
		c0,0.922-0.129,1.851-0.38,2.793c-0.257,0.944-0.677,1.823-1.264,2.649c-0.584,0.821-1.37,1.486-2.352,1.997
		C352.106,287.547,350.925,287.798,349.543,287.798z M330.377,279.028h4.424c2.113,0,3.17-0.934,3.17-2.798
		c0-1.74-1.027-2.609-3.08-2.609h-4.515V279.028z M330.377,287.408h-2.103v-15.59h7.242c0.939,0,1.758,0.189,2.458,0.562
		c0.7,0.378,1.239,0.896,1.612,1.566c0.373,0.67,0.557,1.423,0.557,2.261c0,1.241-0.38,2.324-1.143,3.243
		c-0.76,0.919-1.921,1.38-3.483,1.38h-5.139V287.408z M325.293,287.385h-11.5v-15.587h11.352v1.866h-9.249v4.774h8.529v1.866h-8.529
		v5.215h9.398V287.385z M301.413,285.585h4.49c1.075,0,1.896-0.254,2.458-0.76c0.562-0.504,0.844-1.201,0.844-2.087
		c0-1.748-1.216-2.624-3.649-2.624h-4.142V285.585z M301.413,278.393h3.795c1.068,0,1.878-0.191,2.432-0.572
		c0.554-0.383,0.829-1.03,0.829-1.942c0-0.753-0.252-1.322-0.763-1.705c-0.511-0.383-1.332-0.577-2.473-0.577h-3.82V278.393z
		 M299.31,271.798h6.862c0.932,0,1.732,0.176,2.395,0.529c0.662,0.35,1.161,0.821,1.498,1.413c0.335,0.594,0.506,1.257,0.506,1.984
		c0,1.521-0.695,2.606-2.08,3.261c0.813,0.332,1.486,0.755,2.02,1.277c0.531,0.516,0.796,1.36,0.796,2.521
		c0,0.851-0.204,1.622-0.612,2.322c-0.41,0.697-1.015,1.254-1.821,1.664c-0.803,0.413-1.758,0.617-2.858,0.617h-6.706V271.798z
		 M296.329,287.385h-11.5v-15.587h11.352v1.866h-9.249v4.774h8.529v1.866h-8.529v5.215h9.398V287.385z M280.092,276.487
		c-0.259-1.219-0.811-2.065-1.642-2.533c-0.833-0.466-1.74-0.703-2.73-0.703c-0.959,0-1.826,0.237-2.599,0.708
		c-0.773,0.471-1.38,1.168-1.831,2.103c-0.446,0.929-0.667,2.055-0.667,3.379c0,1.982,0.403,3.563,1.214,4.732
		c0.811,1.173,2.133,1.76,3.956,1.76c0.554,0,1.126-0.116,1.715-0.353c0.589-0.232,1.141-0.665,1.644-1.304
		c0.506-0.637,0.866-1.513,1.088-2.621h2.042c-0.259,1.76-0.826,3.097-1.705,4.009c-0.881,0.917-1.77,1.498-2.674,1.755
		c-0.904,0.254-1.72,0.38-2.44,0.38c-0.922,0-1.798-0.154-2.632-0.468c-0.826-0.312-1.574-0.806-2.234-1.471
		c-0.667-0.67-1.189-1.534-1.571-2.599c-0.385-1.063-0.577-2.314-0.577-3.757c0-1.199,0.166-2.299,0.501-3.296
		c0.327-0.997,0.813-1.856,1.443-2.571c0.63-0.72,1.398-1.274,2.297-1.665c0.901-0.393,1.911-0.587,3.034-0.587
		c1.269,0,2.372,0.234,3.306,0.705c0.934,0.473,1.657,1.098,2.171,1.876c0.514,0.778,0.826,1.617,0.932,2.521H280.092z"/>
	<path style="clip-path:url(#SVGID_2_);fill-rule:evenodd;clip-rule:evenodd;fill:#DEF2F9;" d="M92.303,199.716l148.544-66.699
		c9.813-4.573,14.411-6.275,25.658-0.242l65.079,39.366l69.295-33.602c4.105-1.874,8.116-2.725,18.335,4.021l89.918,56.586
		l-0.005-11.473l-89.908-56.953c-10.312-6.406-14.127-5.865-18.335-4.021l-69.3,33.978l-65.026-39.399
		c-10.327-5.696-15.953-4.525-25.72,0.262L92.268,188.256L92.303,199.716z"/>
	<path style="clip-path:url(#SVGID_2_);fill:#58595B;" d="M273.545,340.087c-0.159,0.043-0.39,0.065-0.695,0.065
		c-0.474-0.023-0.944-0.103-1.408-0.239v-1.929c0.355,0.202,0.705,0.305,1.06,0.305c0.556,0,0.964-0.254,1.221-0.76l0.929-1.863
		l-6.381-11.425h2.624l4.885,9.116l3.951-9.116h2.41l-6.421,13.744C275.134,339.196,274.411,339.898,273.545,340.087"/>
	<polygon style="clip-path:url(#SVGID_2_);fill:#58595B;" points="294.695,324.241 296.797,324.241 296.797,339.831 
		294.695,339.831 294.695,332.556 286.554,332.556 286.554,339.831 284.451,339.831 284.451,324.241 286.554,324.241 
		286.554,330.69 294.695,330.69 	"/>
	<polygon style="clip-path:url(#SVGID_2_);fill:#58595B;" points="302.568,336.834 302.616,336.834 310.412,324.241 
		312.905,324.241 312.905,339.831 310.868,339.831 310.868,327.237 310.825,327.237 302.898,339.831 300.531,339.831 
		300.531,324.241 302.568,324.241 	"/>
	<path style="clip-path:url(#SVGID_2_);fill:#58595B;" d="M318.728,338.028h4.49c1.075,0,1.896-0.252,2.458-0.76
		c0.561-0.504,0.843-1.201,0.843-2.087c0-1.748-1.216-2.624-3.649-2.624h-4.142V338.028z M318.728,330.839h3.795
		c1.068,0,1.878-0.191,2.433-0.572c0.554-0.385,0.828-1.032,0.828-1.944c0-0.753-0.254-1.322-0.763-1.705
		c-0.511-0.383-1.332-0.574-2.473-0.574h-3.82V330.839z M316.625,324.241h6.862c0.932,0,1.732,0.176,2.395,0.529
		c0.662,0.35,1.161,0.821,1.498,1.415c0.335,0.592,0.506,1.254,0.506,1.982c0,1.521-0.695,2.606-2.08,3.261
		c0.813,0.332,1.486,0.755,2.02,1.277c0.531,0.519,0.796,1.362,0.796,2.523c0,0.851-0.204,1.622-0.612,2.319
		c-0.411,0.697-1.015,1.254-1.821,1.664c-0.803,0.413-1.758,0.619-2.858,0.619h-6.706V324.241z"/>
	<polygon style="clip-path:url(#SVGID_2_);fill:#58595B;" points="343.018,339.83 331.518,339.83 331.518,324.24 342.87,324.24 
		342.87,326.109 333.62,326.109 333.62,330.881 342.15,330.881 342.15,332.749 333.62,332.749 333.62,337.962 343.018,337.962 	"/>
	<path style="clip-path:url(#SVGID_2_);fill:#58595B;" d="M348.514,331.472h4.424c2.115,0,3.17-0.934,3.17-2.798
		c0-1.74-1.027-2.609-3.077-2.609h-4.517V331.472z M348.514,339.852h-2.103v-15.59h7.245c0.937,0,1.755,0.189,2.458,0.562
		c0.698,0.375,1.236,0.896,1.609,1.566c0.373,0.67,0.559,1.423,0.559,2.261c0,1.241-0.38,2.324-1.146,3.243
		c-0.758,0.919-1.921,1.377-3.48,1.377h-5.142V339.852z"/>
	<path style="clip-path:url(#SVGID_2_);fill:#58595B;" d="M372.243,328.931c-0.259-1.219-0.811-2.065-1.642-2.533
		c-0.833-0.466-1.743-0.703-2.73-0.703c-0.959,0-1.828,0.237-2.599,0.708c-0.773,0.471-1.382,1.168-1.831,2.103
		c-0.446,0.929-0.667,2.055-0.667,3.379c0,1.982,0.403,3.563,1.214,4.732c0.811,1.173,2.133,1.76,3.956,1.76
		c0.554,0,1.126-0.116,1.715-0.353c0.589-0.232,1.141-0.665,1.644-1.304c0.506-0.637,0.866-1.513,1.088-2.621h2.042
		c-0.259,1.76-0.826,3.097-1.705,4.009c-0.881,0.917-1.77,1.498-2.674,1.755c-0.907,0.254-1.72,0.38-2.44,0.38
		c-0.922,0-1.798-0.154-2.632-0.468c-0.828-0.312-1.574-0.806-2.236-1.471c-0.665-0.67-1.186-1.534-1.569-2.599
		c-0.385-1.063-0.577-2.314-0.577-3.755c0-1.201,0.166-2.302,0.499-3.299c0.33-0.997,0.816-1.856,1.446-2.571
		c0.63-0.72,1.395-1.274,2.297-1.665c0.901-0.39,1.911-0.587,3.034-0.587c1.269,0,2.372,0.234,3.306,0.705
		c0.934,0.473,1.657,1.098,2.171,1.876c0.514,0.778,0.826,1.617,0.932,2.521H372.243z"/>
	<polygon style="clip-path:url(#SVGID_2_);fill:#58595B;" points="379.422,336.834 379.47,336.834 387.266,324.241 389.759,324.241 
		389.759,339.831 387.722,339.831 387.722,327.237 387.679,327.237 379.752,339.831 377.385,339.831 377.385,324.241 
		379.422,324.241 	"/>
	<polygon style="clip-path:url(#SVGID_2_);fill:#58595B;" points="392.126,324.241 404.785,324.241 404.785,326.107 
		399.507,326.107 399.507,339.831 397.404,339.831 397.404,326.107 392.126,326.107 	"/>
	<polygon style="clip-path:url(#SVGID_2_);fill:#58595B;" points="418.66,339.83 407.16,339.83 407.16,324.24 418.512,324.24 
		418.512,326.109 409.262,326.109 409.262,330.881 417.792,330.881 417.792,332.749 409.262,332.749 409.262,337.962 
		418.66,337.962 	"/>
	<polygon style="clip-path:url(#SVGID_2_);fill:#58595B;" points="420.7,324.241 433.359,324.241 433.359,326.107 428.083,326.107 
		428.083,339.831 425.981,339.831 425.981,326.107 420.7,326.107 	"/>
	<path style="clip-path:url(#SVGID_2_);fill:none;stroke:#58595B;stroke-width:0.526;stroke-miterlimit:22.926;" d="M420.701,324.24
		h12.656v1.868h-5.276v13.721h-2.103v-13.721h-5.278V324.24z M418.661,339.83h-11.5v-15.59h11.352v1.868h-9.249v4.772h8.529v1.868
		h-8.529v5.213h9.398V339.83z M392.125,324.24h12.659v1.868h-5.275v13.721h-2.103v-13.721h-5.281V324.24z M379.421,336.834h0.048
		l7.799-12.593h2.493v15.59h-2.037v-12.593h-0.043l-7.93,12.593h-2.367v-15.59h2.037V336.834z M372.244,328.929
		c-0.262-1.219-0.811-2.065-1.644-2.531c-0.831-0.468-1.74-0.703-2.727-0.703c-0.96,0-1.828,0.234-2.599,0.705
		c-0.773,0.471-1.382,1.168-1.831,2.103c-0.446,0.929-0.67,2.055-0.67,3.379c0,1.984,0.405,3.566,1.216,4.734
		c0.811,1.171,2.13,1.758,3.956,1.758c0.554,0,1.126-0.116,1.715-0.35c0.589-0.232,1.138-0.667,1.642-1.307
		c0.506-0.637,0.869-1.513,1.09-2.619h2.04c-0.257,1.758-0.823,3.097-1.705,4.009c-0.879,0.914-1.768,1.498-2.674,1.755
		c-0.904,0.252-1.717,0.38-2.437,0.38c-0.924,0-1.798-0.156-2.632-0.471c-0.828-0.312-1.574-0.803-2.236-1.468
		c-0.665-0.67-1.186-1.536-1.569-2.599c-0.385-1.065-0.577-2.317-0.577-3.757c0-1.201,0.166-2.302,0.499-3.296
		c0.33-1,0.816-1.856,1.445-2.574c0.63-0.72,1.395-1.274,2.297-1.665c0.901-0.39,1.911-0.587,3.032-0.587
		c1.272,0,2.375,0.237,3.309,0.708c0.932,0.473,1.657,1.095,2.171,1.874c0.514,0.778,0.826,1.617,0.929,2.521H372.244z
		 M348.513,331.47h4.427c2.113,0,3.17-0.932,3.17-2.795c0-1.743-1.027-2.609-3.08-2.609h-4.517V331.47z M348.513,339.853h-2.1
		v-15.59h7.242c0.939,0,1.755,0.189,2.458,0.562c0.697,0.375,1.236,0.896,1.612,1.566c0.37,0.67,0.557,1.42,0.557,2.261
		c0,1.241-0.38,2.324-1.143,3.241c-0.76,0.919-1.921,1.38-3.483,1.38h-5.142V339.853z M343.018,339.83h-11.5v-15.59h11.352v1.868
		h-9.249v4.772h8.529v1.868h-8.529v5.213h9.398V339.83z M318.728,338.027h4.49c1.075,0,1.896-0.252,2.458-0.76
		c0.559-0.501,0.841-1.201,0.841-2.087c0-1.748-1.214-2.621-3.646-2.621h-4.142V338.027z M318.728,330.838h3.795
		c1.068,0,1.879-0.191,2.433-0.572c0.554-0.383,0.829-1.032,0.829-1.944c0-0.753-0.254-1.319-0.763-1.705
		c-0.511-0.383-1.332-0.574-2.473-0.574h-3.82V330.838z M316.625,324.24h6.862c0.932,0,1.733,0.179,2.395,0.529
		c0.662,0.35,1.161,0.821,1.498,1.415c0.335,0.594,0.506,1.257,0.506,1.982c0,1.521-0.695,2.606-2.08,3.261
		c0.813,0.332,1.486,0.755,2.02,1.279c0.531,0.516,0.796,1.36,0.796,2.521c0,0.851-0.204,1.622-0.612,2.319
		c-0.411,0.697-1.015,1.257-1.821,1.664c-0.803,0.413-1.758,0.619-2.858,0.619h-6.706V324.24z M302.569,336.834h0.045l7.799-12.593
		h2.493v15.59h-2.037v-12.593h-0.043l-7.93,12.593h-2.367v-15.59h2.04V336.834z M294.695,324.24h2.103v15.59h-2.103v-7.272h-8.141
		v7.272h-2.103v-15.59h2.103v6.449h8.141V324.24z M273.545,340.087c-0.159,0.043-0.39,0.065-0.695,0.065
		c-0.474-0.023-0.944-0.103-1.408-0.239v-1.929c0.355,0.202,0.705,0.305,1.06,0.305c0.556,0,0.964-0.254,1.221-0.76l0.929-1.863
		l-6.381-11.425h2.624l4.885,9.116l3.951-9.116h2.41l-6.421,13.744C275.134,339.196,274.411,339.898,273.545,340.087z"/>
	<path style="clip-path:url(#SVGID_2_);fill:#2E3191;" d="M225.676,339.387c-3.85,0-13.21-0.332-15.326-0.997v-11.584
		c1.586,0.725,9.481,1.088,10.977,1.088c2.825,0,4.878-1.239,6.162-3.717l0.272-0.559l-26.212-50.3h15.245l17.491,36.357
		l13.233-36.357h14.474l-22.374,54.183c-1.065,2.576-2.516,4.749-4.276,6.54s-3.533,3.11-5.316,4.001
		C228.245,338.934,226.81,339.387,225.676,339.387 M156.631,320.884v-30.059c-4.334,0-8.154,1.133-11.432,3.4
		c-3.279,2.266-4.91,6.147-4.91,11.646c0,5.467,1.647,9.335,4.926,11.601C148.505,319.75,152.312,320.884,156.631,320.884
		 M170.211,290.824v30.059c2.659,0,5.21-0.438,7.673-1.314c2.448-0.876,4.503-2.43,6.164-4.681c1.647-2.236,2.475-5.243,2.475-9.018
		c0-3.777-0.828-6.799-2.475-9.033c-1.662-2.251-3.717-3.823-6.164-4.699C175.421,291.262,172.871,290.824,170.211,290.824
		 M170.211,280.326c4.412,0,8.866,0.816,13.369,2.433c4.5,1.617,8.292,4.351,11.372,8.189c3.082,3.85,4.623,8.821,4.623,14.923
		c0,4.681-0.922,8.685-2.765,12.009c-1.843,3.321-4.258,5.966-7.22,7.93c-2.976,1.979-6.147,3.397-9.516,4.273
		c-3.384,0.861-6.661,1.299-9.864,1.299v7.008h-13.58v-7.008c-3.186,0-6.494-0.438-9.909-1.299c-3.412-0.876-6.63-2.294-9.65-4.273
		c-3.022-1.964-5.484-4.623-7.355-7.945c-1.889-3.324-2.825-7.328-2.825-11.994c0-4.699,0.937-8.715,2.825-12.039
		c1.871-3.337,4.334-5.981,7.371-7.96c3.019-1.979,6.237-3.384,9.634-4.246c3.384-0.861,6.693-1.299,9.909-1.299v-6.963h13.58
		V280.326z M85.835,338.39h-13.58l-0.254-229.158h13.58l0.254,190.549l25.567-26.463h15.275l-24.968,26.647l28.08,38.425h-18.224
		l-19.402-28.548l-6.328,6.527V338.39z M47.318,294.617c-0.861-3.143-2.251-5.814-4.183-7.99c-1.934-2.176-5.349-3.264-10.226-3.264
		c-4.185,0-7.932,1.738-11.208,5.213c-3.279,3.457-4.926,9.32-4.926,17.552c0,4.092,0.559,7.824,1.692,11.178
		c1.133,3.352,2.901,6.041,5.318,8.035c2.402,2.009,5.452,3.004,9.123,3.004c2.521,0,4.772-0.468,6.736-1.388
		c1.979-0.937,3.609-2.327,4.923-4.185c1.315-1.843,2.236-4.079,2.75-6.676h13.611c-0.937,4.802-2.599,9.018-4.986,12.611
		c-2.402,3.611-5.558,6.404-9.471,8.416c-3.926,1.992-8.534,2.989-13.82,2.989c-5.832,0-10.997-1.297-15.484-3.911
		c-4.485-2.599-7.99-6.482-10.498-11.631c-2.506-5.152-3.76-11.359-3.76-18.609c0-7.358,1.299-13.611,3.911-18.79
		c2.599-5.182,6.164-9.063,10.71-11.662c4.533-2.614,9.637-3.913,15.303-3.913c4.606,0,8.685,0.71,12.218,2.13
		c3.535,1.405,6.421,3.264,8.685,5.56c2.251,2.279,3.974,4.757,5.137,7.431c1.178,2.659,1.858,5.286,2.055,7.899H47.318z"/>
	<path style="clip-path:url(#SVGID_2_);fill:none;stroke:#2E3191;stroke-width:0.526;stroke-miterlimit:22.926;" d="
		M225.676,339.387c-3.85,0-13.21-0.332-15.326-0.997v-11.584c1.586,0.725,9.481,1.088,10.977,1.088c2.825,0,4.878-1.239,6.162-3.717
		l0.272-0.559l-26.212-50.3h15.245l17.491,36.357l13.233-36.357h14.474l-22.374,54.183c-1.065,2.576-2.516,4.749-4.276,6.54
		s-3.533,3.11-5.316,4.001C228.245,338.934,226.81,339.387,225.676,339.387z M156.631,320.884v-30.059
		c-4.334,0-8.154,1.133-11.432,3.4c-3.279,2.266-4.91,6.147-4.91,11.646c0,5.467,1.647,9.335,4.926,11.601
		C148.505,319.75,152.312,320.884,156.631,320.884z M170.211,290.824v30.059c2.659,0,5.21-0.438,7.673-1.314
		c2.448-0.876,4.503-2.43,6.164-4.681c1.647-2.236,2.475-5.243,2.475-9.018c0-3.777-0.828-6.799-2.475-9.033
		c-1.662-2.251-3.717-3.823-6.164-4.699C175.421,291.262,172.871,290.824,170.211,290.824z M170.211,280.326
		c4.412,0,8.866,0.816,13.369,2.433c4.5,1.617,8.292,4.351,11.372,8.189c3.082,3.85,4.623,8.821,4.623,14.923
		c0,4.681-0.922,8.685-2.765,12.009c-1.843,3.321-4.258,5.966-7.22,7.93c-2.976,1.979-6.147,3.397-9.516,4.273
		c-3.384,0.861-6.661,1.299-9.864,1.299v7.008h-13.58v-7.008c-3.186,0-6.494-0.438-9.909-1.299c-3.412-0.876-6.63-2.294-9.65-4.273
		c-3.022-1.964-5.484-4.623-7.355-7.945c-1.889-3.324-2.825-7.328-2.825-11.994c0-4.699,0.937-8.715,2.825-12.039
		c1.871-3.337,4.334-5.981,7.371-7.96c3.019-1.979,6.237-3.384,9.634-4.246c3.384-0.861,6.693-1.299,9.909-1.299v-6.963h13.58
		V280.326z M85.835,338.39h-13.58l-0.254-229.158h13.58l0.254,190.549l25.567-26.463h15.275l-24.968,26.647l28.08,38.425h-18.224
		l-19.402-28.548l-6.328,6.527V338.39z M47.318,294.617c-0.861-3.143-2.251-5.814-4.183-7.99c-1.934-2.176-5.349-3.264-10.226-3.264
		c-4.185,0-7.932,1.738-11.208,5.213c-3.279,3.457-4.926,9.32-4.926,17.552c0,4.092,0.559,7.824,1.692,11.178
		c1.133,3.352,2.901,6.041,5.318,8.035c2.402,2.009,5.452,3.004,9.123,3.004c2.521,0,4.772-0.468,6.736-1.388
		c1.979-0.937,3.609-2.327,4.923-4.185c1.315-1.843,2.236-4.079,2.75-6.676h13.611c-0.937,4.802-2.599,9.018-4.986,12.611
		c-2.402,3.611-5.558,6.404-9.471,8.416c-3.926,1.992-8.534,2.989-13.82,2.989c-5.832,0-10.997-1.297-15.484-3.911
		c-4.485-2.599-7.99-6.482-10.498-11.631c-2.506-5.152-3.76-11.359-3.76-18.609c0-7.358,1.299-13.611,3.911-18.79
		c2.599-5.182,6.164-9.063,10.71-11.662c4.533-2.614,9.637-3.913,15.303-3.913c4.606,0,8.685,0.71,12.218,2.13
		c3.535,1.405,6.421,3.264,8.685,5.56c2.251,2.279,3.974,4.757,5.137,7.431c1.178,2.659,1.858,5.286,2.055,7.899H47.318z"/>
	<path style="clip-path:url(#SVGID_2_);fill-rule:evenodd;clip-rule:evenodd;fill:#FFCA05;" d="M56.869,132.23
		c0.373-22.404-22.623-40.477-39.729-40.953c1.488,22.447,2.944,16.262,17.887,22.356C42.294,116.698,51.491,125.64,56.869,132.23"
		/>
	<path style="clip-path:url(#SVGID_2_);fill-rule:evenodd;clip-rule:evenodd;fill:#C4D83D;" d="M13.033,130.449
		c4.2,0.783,8.161,0.972,12.601,2.349c13.434,3.498,23.771,11.274,30.797,16.522c-1.433-24.461-27.644-36.659-51.705-39.714
		L4.61,116.76C4.068,125.951,8.581,128.857,13.033,130.449"/>
	<path style="clip-path:url(#SVGID_2_);fill-rule:evenodd;clip-rule:evenodd;fill:#7670B2;" d="M57.629,117.088
		c2.264-17.103-11.966-36.224-24.935-40.726c-2.314,17.476,1.385,13.009,11.118,21.374
		C49.042,102.216,54.056,108.602,57.629,117.088"/>
	<path style="clip-path:url(#SVGID_2_);fill-rule:evenodd;clip-rule:evenodd;fill:#A44685;" d="M13.087,184.394
		c2.002,0.305,36.795,1.803,44.622,15.477c5.034-38.598-46.125-39.246-56.976-42.489C1.662,162.459,4.15,180.252,13.087,184.394"/>
	<path style="clip-path:url(#SVGID_2_);fill-rule:evenodd;clip-rule:evenodd;fill:#00ADEE;" d="M24.249,208.559
		c1.488,0.055,27.058-1.74,33.877,7.612c0.587-28.649-37.727-24.942-45.921-26.413C13.29,193.392,17.379,206.272,24.249,208.559"/>
	<path style="clip-path:url(#SVGID_2_);fill-rule:evenodd;clip-rule:evenodd;fill:#EB2D62;" d="M9.837,154.352
		c3.405,1.992,36.017,2.513,48.152,21.377c4.754-34.514-38.981-40.59-56.976-43.637C1.943,136.725,0.9,150.573,9.837,154.352"/>
	<path style="clip-path:url(#SVGID_2_);fill-rule:evenodd;clip-rule:evenodd;fill:#7BC2E3;" d="M102.173,132.23
		c-0.373-22.404,22.626-40.477,39.731-40.953c-1.491,22.447-2.946,16.262-17.889,22.356
		C116.748,116.698,107.552,125.64,102.173,132.23"/>
	<path style="clip-path:url(#SVGID_2_);fill-rule:evenodd;clip-rule:evenodd;fill:#9A94C8;" d="M146.01,130.449
		c-4.2,0.783-8.164,0.972-12.601,2.349c-13.434,3.498-23.771,11.274-30.797,16.522c1.433-24.461,27.644-36.659,51.705-39.714
		l0.116,7.154C154.974,125.951,150.461,128.857,146.01,130.449"/>
	<path style="clip-path:url(#SVGID_2_);fill-rule:evenodd;clip-rule:evenodd;fill:#EB008B;" d="M101.413,117.088
		c-2.264-17.103,11.966-36.224,24.935-40.726c2.314,17.476-1.385,13.009-11.115,21.374C110,102.216,104.986,108.602,101.413,117.088
		"/>
	<path style="clip-path:url(#SVGID_2_);fill-rule:evenodd;clip-rule:evenodd;fill:#B2D34C;" d="M145.955,184.394
		c-2.002,0.305-36.796,1.803-44.622,15.477c-5.034-38.598,46.125-39.246,56.976-42.489
		C157.38,162.459,154.892,180.252,145.955,184.394"/>
	<path style="clip-path:url(#SVGID_2_);fill-rule:evenodd;clip-rule:evenodd;fill:#C5579F;" d="M134.794,208.559
		c-1.488,0.055-27.058-1.74-33.877,7.612c-0.589-28.649,36.881-24.872,45.078-26.342
		C144.91,193.465,141.664,206.272,134.794,208.559"/>
	<path style="clip-path:url(#SVGID_2_);fill-rule:evenodd;clip-rule:evenodd;fill:#F48245;" d="M149.206,154.352
		c-3.407,1.992-36.017,2.513-48.152,21.377c-4.754-34.514,38.981-40.59,56.976-43.637
		C157.1,136.725,158.143,150.573,149.206,154.352"/>
	<path style="clip-path:url(#SVGID_2_);fill-rule:evenodd;clip-rule:evenodd;fill:#54C0BE;" d="M63.012,105.62
		c7.804-27.904-0.549-31.177-8.688-38.777c-5.422,11.495-2.322,11.652,3.173,20.447C61.078,93.019,61.128,99.411,63.012,105.62"/>
	<path style="clip-path:url(#SVGID_2_);fill-rule:evenodd;clip-rule:evenodd;fill:#EF8B69;" d="M70.246,97.456
		c13.794-19.392,8.685-22.963,2.838-31.87c-9.068,6.819-5.479,6.854-2.677,15.688C72.23,87.029,70.286,91.969,70.246,97.456"/>
	<path style="clip-path:url(#SVGID_2_);fill-rule:evenodd;clip-rule:evenodd;fill:#FFD85C;" d="M97.457,105.62
		c-7.804-27.904,0.549-31.177,8.69-38.777c5.419,11.495,2.319,11.652-3.176,20.447C99.391,93.019,99.341,99.411,97.457,105.62"/>
	<path style="clip-path:url(#SVGID_2_);fill-rule:evenodd;clip-rule:evenodd;fill:#C5579F;" d="M90.315,97.456
		c-13.364-19.392-8.416-22.963-2.747-31.87c8.786,6.819,5.306,6.854,2.594,15.688C88.391,87.029,90.277,91.969,90.315,97.456"/>
	<path style="clip-path:url(#SVGID_2_);fill-rule:evenodd;clip-rule:evenodd;fill:#FFD85C;" d="M487.967,167.29l15.92,10.745
		C451.348-16.695,225.706-43.913,117.659,64.262C244.25-34.642,429.71,11.121,487.967,167.29"/>
</g>
</svg>
